{
  "accessors": [
    {
      "bufferView": 2,
      "componentType": 5126,
      "count": 65532,
      "max": [
        4.538640022277832,
        9.7332601547241211,
        8.4881000518798828
      ],
      "min": [
        -4.8369598388671875,
        -5.3305802345275879,
        -0.16832999885082245
      ],
      "type": "VEC3"
    },
    {
      "bufferView": 2,
      "byteOffset": 786384,
      "componentType": 5126,
      "count": 65532,
      "max": [
        0.99992609024047852,
        0.99999302625656128,
        0.99997538328170776
      ],
      "min": [
        -0.9999961256980896,
        -0.99993205070495605,
        -0.99998921155929565
      ],
      "type": "VEC3"
    },
    {
      "bufferView": 3,
      "componentType": 5126,
      "count": 65532,
      "max": [
        0.99995177984237671,
        0.9999774694442749,
        0.99994021654129028,
        1
      ],
      "min": [
        -0.99999433755874634,
        -0.99998337030410767,
        -0.99997639656066895,
        -1
      ],
      "type": "VEC4"
    },
    {
      "bufferView": 1,
      "componentType": 5126,
      "count": 65532,
      "max": [
        0.99870002269744873,
        0.99770998954772949
      ],
      "min": [
        0.0036599999293684959,
        0.0019900000188499689
      ],
      "type": "VEC2"
    },
    {
      "bufferView": 0,
      "componentType": 5125,
      "count": 277815,
      "max": [
        65531
      ],
      "min": [
        0
      ],
      "type": "SCALAR"
    },
    {
      "bufferView": 2,
      "byteOffset": 1572768,
      "componentType": 5126,
      "count": 32860,
      "max": [
        3.6309599876403809,
        3.7906100749969482,
        3.3474299907684326
      ],
      "min": [
        -5.7611498832702637,
        -1.1082600355148315,
        -0.1559700071811676
      ],
      "type": "VEC3"
    },
    {
      "bufferView": 2,
      "byteOffset": 1967088,
      "componentType": 5126,
      "count": 32860,
      "max": [
        0.99993801116943359,
        0.99998670816421509,
        0.99998575448989868
      ],
      "min": [
        -0.99997955560684204,
        -0.99985784292221069,
        -0.99998825788497925
      ],
      "type": "VEC3"
    },
    {
      "bufferView": 3,
      "byteOffset": 1048512,
      "componentType": 5126,
      "count": 32860,
      "max": [
        0.99995541572570801,
        0.99999302625656128,
        0.99987626075744629,
        1
      ],
      "min": [
        -0.99999719858169556,
        -0.99986279010772705,
        -0.99982184171676636,
        -1
      ],
      "type": "VEC4"
    },
    {
      "bufferView": 1,
      "byteOffset": 524256,
      "componentType": 5126,
      "count": 32860,
      "max": [
        0.99870002269744873,
        0.99770998954772949
      ],
      "min": [
        0.0036599999293684959,
        0.0019900000188499689
      ],
      "type": "VEC2"
    },
    {
      "bufferView": 0,
      "byteOffset": 1111260,
      "componentType": 5125,
      "count": 162057,
      "max": [
        32859
      ],
      "min": [
        0
      ],
      "type": "SCALAR"
    },
    {
      "bufferView": 2,
      "byteOffset": 2361408,
      "componentType": 5126,
      "count": 1118,
      "max": [
        4.292870044708252,
        6.5799098014831543,
        7.5952701568603516
      ],
      "min": [
        -5.5141100883483887,
        -2.66513991355896,
        0.70462000370025635
      ],
      "type": "VEC3"
    },
    {
      "bufferView": 2,
      "byteOffset": 2374824,
      "componentType": 5126,
      "count": 1118,
      "max": [
        0.99512010812759399,
        0.97248679399490356,
        0.99250942468643188
      ],
      "min": [
        -0.98957037925720215,
        -0.9860805869102478,
        -0.99998539686203003
      ],
      "type": "VEC3"
    },
    {
      "bufferView": 3,
      "byteOffset": 1574272,
      "componentType": 5126,
      "count": 1118,
      "max": [
        0.99741870164871216,
        0.99912464618682861,
        0.99710178375244141,
        1
      ],
      "min": [
        -0.99667847156524658,
        -0.9921424388885498,
        -0.99334073066711426,
        -1
      ],
      "type": "VEC4"
    },
    {
      "bufferView": 1,
      "byteOffset": 787136,
      "componentType": 5126,
      "count": 1118,
      "max": [
        0.97964000701904297,
        0.88848000764846802
      ],
      "min": [
        0.62668001651763916,
        0.02645999938249588
      ],
      "type": "VEC2"
    },
    {
      "bufferView": 0,
      "byteOffset": 1759488,
      "componentType": 5125,
      "count": 2712,
      "max": [
        1117
      ],
      "min": [
        0
      ],
      "type": "SCALAR"
    },
    {
      "bufferView": 2,
      "byteOffset": 2388240,
      "componentType": 5126,
      "count": 2312,
      "max": [
        0.50970000028610229,
        4.6710901260375977,
        5.0878701210021973
      ],
      "min": [
        -0.87268000841140747,
        -1.0556800365447998,
        1.2039099931716919
      ],
      "type": "VEC3"
    },
    {
      "bufferView": 2,
      "byteOffset": 2415984,
      "componentType": 5126,
      "count": 2312,
      "max": [
        0.99755793809890747,
        0.999095618724823,
        0.99859559535980225
      ],
      "min": [
        -0.99891096353530884,
        -0.99990147352218628,
        -0.99921655654907227
      ],
      "type": "VEC3"
    },
    {
      "bufferView": 3,
      "byteOffset": 1592160,
      "componentType": 5126,
      "count": 2312,
      "max": [
        0.99886423349380493,
        0.99946385622024536,
        0.81002146005630493,
        1
      ],
      "min": [
        -0.99985945224761963,
        -0.99876207113265991,
        -0.79979407787322998,
        1
      ],
      "type": "VEC4"
    },
    {
      "bufferView": 1,
      "byteOffset": 796080,
      "componentType": 5126,
      "count": 2312,
      "max": [
        0.34178000688552856,
        0.47205999493598938
      ],
      "min": [
        0.14926999807357788,
        0.39019998908042908
      ],
      "type": "VEC2"
    },
    {
      "bufferView": 0,
      "byteOffset": 1770336,
      "componentType": 5125,
      "count": 13248,
      "max": [
        2311
      ],
      "min": [
        0
      ],
      "type": "SCALAR"
    },
    {
      "bufferView": 2,
      "byteOffset": 2443728,
      "componentType": 5126,
      "count": 17412,
      "max": [
        4.4348998069763184,
        4.7080698013305664,
        -0.12213999778032303
      ],
      "min": [
        -5.0671300888061523,
        -3.055840015411377,
        -0.17098000645637512
      ],
      "type": "VEC3"
    },
    {
      "bufferView": 2,
      "byteOffset": 2652672,
      "componentType": 5126,
      "count": 17412,
      "max": [
        0.99992775917053223,
        0.99526762962341309,
        1
      ],
      "min": [
        -0.98781788349151611,
        -0.99775958061218262,
        -1
      ],
      "type": "VEC3"
    },
    {
      "bufferView": 3,
      "byteOffset": 1629152,
      "componentType": 5126,
      "count": 17412,
      "max": [
        1,
        0.96785348653793335,
        0.71920543909072876,
        1
      ],
      "min": [
        -0.97807961702346802,
        -0.59443634748458862,
        -0.91192489862442017,
        -1
      ],
      "type": "VEC4"
    },
    {
      "bufferView": 1,
      "byteOffset": 814576,
      "componentType": 5126,
      "count": 17412,
      "max": [
        1,
        1
      ],
      "min": [
        0,
        0
      ],
      "type": "VEC2"
    },
    {
      "bufferView": 0,
      "byteOffset": 1823328,
      "componentType": 5125,
      "count": 104289,
      "max": [
        17411
      ],
      "min": [
        0
      ],
      "type": "SCALAR"
    }
  ],
  "asset": {
    "extras": {
      "author": "3DHaupt (https://sketchfab.com/dennish2010)",
      "license": "CC-BY-NC-ND-4.0 (http://creativecommons.org/licenses/by-nc-nd/4.0/)",
      "source": "https://sketchfab.com/models/e2d411f38bb04a4cb36f4dfe748fda47",
      "title": "Dragon 2.0"
    },
    "generator": "Sketchfab-3.28.5",
    "version": "2.0"
  },
  "bufferViews": [
    {
      "buffer": 0,
      "byteLength": 2240484,
      "byteOffset": 0,
      "name": "floatBufferViews",
      "target": 34963
    },
    {
      "buffer": 0,
      "byteLength": 953872,
      "byteOffset": 2240484,
      "byteStride": 8,
      "name": "floatBufferViews",
      "target": 34962
    },
    {
      "buffer": 0,
      "byteLength": 2861616,
      "byteOffset": 3194356,
      "byteStride": 12,
      "name": "floatBufferViews",
      "target": 34962
    },
    {
      "buffer": 0,
      "byteLength": 1907744,
      "byteOffset": 6055972,
      "byteStride": 16,
      "name": "floatBufferViews",
      "target": 34962
    }
  ],
  "buffers": [
    {
      "byteLength": 7963716,
      "uri": "scene.bin"
    }
  ],
  "images": [
    {
      "uri": "textures/Game_dragon_baseColor.jpeg"
    },
    {
      "uri": "textures/Game_dragon_normal.png"
    },
    {
      "uri": "textures/Game_dragon.001_baseColor.jpeg"
    },
    {
      "uri": "textures/Game_dragon.001_normal.png"
    },
    {
      "uri": "textures/Material.004_baseColor.png"
    },
    {
      "uri": "textures/Material.004_emissive.png"
    },
    {
      "uri": "textures/EYES_baseColor.jpeg"
    },
    {
      "uri": "textures/EYES_emissive.jpeg"
    },
    {
      "uri": "textures/EYES_normal.png"
    }
  ],
  "materials": [
    {
      "doubleSided": true,
      "emissiveFactor": [
        0.27000000000000002,
        0.27000000000000002,
        0.27000000000000002
      ],
      "emissiveTexture": {
        "index": 5,
        "texCoord": 0
      },
      "name": "Material.004",
      "pbrMetallicRoughness": {
        "baseColorFactor": [
          1,
          1,
          1,
          1
        ],
        "baseColorTexture": {
          "index": 4,
          "texCoord": 0
        },
        "metallicFactor": 0,
        "roughnessFactor": 0.59999999999999998
      }
    },
    {
      "doubleSided": true,
      "emissiveFactor": [
        1,
        1,
        1
      ],
      "emissiveTexture": {
        "index": 7,
        "texCoord": 0
      },
      "name": "EYES",
      "normalTexture": {
        "index": 8,
        "scale": 1,
        "texCoord": 0
      },
      "pbrMetallicRoughness": {
        "baseColorFactor": [
          1,
          1,
          1,
          1
        ],
        "baseColorTexture": {
          "index": 6,
          "texCoord": 0
        },
        "metallicFactor": 0,
        "roughnessFactor": 0.59999999999999998
      }
    },
    {
      "doubleSided": true,
      "emissiveFactor": [
        0,
        0,
        0
      ],
      "name": "Game_dragon",
      "normalTexture": {
        "index": 1,
        "scale": 1,
        "texCoord": 0
      },
      "pbrMetallicRoughness": {
        "baseColorFactor": [
          1,
          1,
          1,
          1
        ],
        "baseColorTexture": {
          "index": 0,
          "texCoord": 0
        },
        "metallicFactor": 0,
        "roughnessFactor": 0.59999999999999998
      }
    },
    {
      "doubleSided": true,
      "emissiveFactor": [
        0,
        0,
        0
      ],
      "name": "Game_dragon.001",
      "normalTexture": {
        "index": 3,
        "scale": 0.52000000000000002,
        "texCoord": 0
      },
      "pbrMetallicRoughness": {
        "baseColorFactor": [
          1,
          1,
          1,
          1
        ],
        "baseColorTexture": {
          "index": 2,
          "texCoord": 0
        },
        "metallicFactor": 0,
        "roughnessFactor": 0.59999999999999998
      }
    }
  ],
  "meshes": [
    {
      "name": "Cube.001_0",
      "primitives": [
        {
          "attributes": {
            "NORMAL": 1,
            "POSITION": 0,
            "TANGENT": 2,
            "TEXCOORD_0": 3
          },
          "indices": 4,
          "material": 3,
          "mode": 4
        }
      ]
    },
    {
      "name": "Cube.001_0",
      "primitives": [
        {
          "attributes": {
            "NORMAL": 6,
            "POSITION": 5,
            "TANGENT": 7,
            "TEXCOORD_0": 8
          },
          "indices": 9,
          "material": 3,
          "mode": 4
        }
      ]
    },
    {
      "name": "Cube.002_0",
      "primitives": [
        {
          "attributes": {
            "NORMAL": 11,
            "POSITION": 10,
            "TANGENT": 12,
            "TEXCOORD_0": 13
          },
          "indices": 14,
          "material": 2,
          "mode": 4
        }
      ]
    },
    {
      "name": "Cube.003_0",
      "primitives": [
        {
          "attributes": {
            "NORMAL": 16,
            "POSITION": 15,
            "TANGENT": 17,
            "TEXCOORD_0": 18
          },
          "indices": 19,
          "material": 1,
          "mode": 4
        }
      ]
    },
    {
      "name": "Cube.004_0",
      "primitives": [
        {
          "attributes": {
            "NORMAL": 21,
            "POSITION": 20,
            "TANGENT": 22,
            "TEXCOORD_0": 23
          },
          "indices": 24,
          "material": 0,
          "mode": 4
        }
      ]
    }
  ],
  "nodes": [
    {
      "children": [
        1
      ],
      "name": "RootNode (gltf orientation matrix)",
      "rotation": [
        -0.70710678118654746,
        -0,
        -0,
        0.70710678118654757
      ]
    },
    {
      "children": [
        2
      ],
      "name": "RootNode (model correction matrix)"
    },
    {
      "children": [
        3,
        6,
        8,
        10
      ],
      "name": "Root"
    },
    {
      "children": [
        4,
        5
      ],
      "name": "Cube.001"
    },
    {
      "mesh": 0,
      "name": "Cube.001_0"
    },
    {
      "mesh": 1,
      "name": "Cube.001_0"
    },
    {
      "children": [
        7
      ],
      "name": "Cube.002"
    },
    {
      "mesh": 2,
      "name": "Cube.002_0"
    },
    {
      "children": [
        9
      ],
      "name": "Cube.003"
    },
    {
      "mesh": 3,
      "name": "Cube.003_0"
    },
    {
      "children": [
        11
      ],
      "name": "Cube.004"
    },
    {
      "mesh": 4,
      "name": "Cube.004_0"
    }
  ],
  "samplers": [
    {
      "magFilter": 9729,
      "minFilter": 9987,
      "wrapS": 10497,
      "wrapT": 10497
    }
  ],
  "scene": 0,
  "scenes": [
    {
      "name": "OSG_Scene",
      "nodes": [
        0
      ]
    }
  ],
  "textures": [
    {
      "sampler": 0,
      "source": 0
    },
    {
      "sampler": 0,
      "source": 1
    },
    {
      "sampler": 0,
      "source": 2
    },
    {
      "sampler": 0,
      "source": 3
    },
    {
      "sampler": 0,
      "source": 4
    },
    {
      "sampler": 0,
      "source": 5
    },
    {
      "sampler": 0,
      "source": 6
    },
    {
      "sampler": 0,
      "source": 7
    },
    {
      "sampler": 0,
      "source": 8
    }
  ]
}

